<?xml version="1.0" encoding="utf-8"?>
<!-- Generator: Adobe Illustrator 23.1.1, SVG Export Plug-In . SVG Version: 6.00 Build 0)  -->
<svg version="1.2" baseProfile="tiny" id="Layer_1" xmlns="http://www.w3.org/2000/svg" xmlns:xlink="http://www.w3.org/1999/xlink"
	 x="0px" y="0px" viewBox="0 0 144 144" xml:space="preserve">
<g id="drink">
	<path fill="#505250" d="M114.054,54.631l-5.129-14.209c-0.349-0.967-1.329-1.619-2.433-1.619h-6.411
		c0-0.237-0.038-0.477-0.12-0.715l-3.248-9.472c-0.338-0.984-1.327-1.653-2.445-1.653H74.834L70.112,2.86
		c-0.127-0.65-0.543-1.221-1.146-1.576c-0.603-0.355-1.339-0.461-2.031-0.293L41.389,7.207c-1.37,0.333-2.187,1.629-1.826,2.893
		c0.361,1.265,1.764,2.02,3.133,1.687l22.862-5.563l4.063,20.738H52.038c-1.118,0-2.107,0.669-2.445,1.653l-3.248,9.472
		c-0.082,0.238-0.12,0.478-0.12,0.715h-6.411c-1.104,0-2.084,0.652-2.433,1.619l-5.129,14.209c-0.261,0.722-0.13,1.516,0.352,2.134
		c0.482,0.617,1.256,0.983,2.08,0.983h5.334l7.498,83.08c0.111,1.228,1.222,2.172,2.556,2.172h46.162
		c1.334,0,2.445-0.944,2.556-2.172l7.498-83.08h5.334c0.825,0,1.599-0.366,2.08-0.983C114.184,56.147,114.315,55.353,114.054,54.631
		z M53.916,31.699H92.39l2.436,7.104H51.48L53.916,31.699z M96.012,114.583H76.016l-3.142-33.153h26.129L96.012,114.583z
		 M95.584,119.319l-1.71,18.945H52.432l-7.266-80.516h55.975L95.584,119.319z M103.928,53.012H42.379h-4.136l3.419-9.472h62.981
		l3.42,9.472H103.928z"/>
</g>
</svg>
