<?xml version="1.0" encoding="utf-8"?>
<!-- Generator: Adobe Illustrator 23.1.1, SVG Export Plug-In . SVG Version: 6.00 Build 0)  -->
<svg version="1.2" baseProfile="tiny" id="Layer_1" xmlns="http://www.w3.org/2000/svg" xmlns:xlink="http://www.w3.org/1999/xlink"
	 x="0px" y="0px" viewBox="0 0 144 144" xml:space="preserve">
<g>
	
		<line fill="none" stroke="#505250" stroke-width="5" stroke-linecap="round" stroke-linejoin="round" stroke-miterlimit="10" x1="132.973" y1="135.532" x2="46.24" y2="135.532"/>
	<path fill="none" stroke="#505250" stroke-width="5" stroke-linecap="round" stroke-linejoin="round" stroke-miterlimit="10" d="
		M136.157,59.302v15.529c0,15.56-8.476,29.271-20.309,37.554h-0.258l0.267,7.567H65.105v-7.389
		c-11.992-8.227-20.301-22.061-20.301-37.733V59.302H136.157z"/>
	<path fill="none" stroke="#505250" stroke-width="5" stroke-linecap="round" stroke-linejoin="round" stroke-miterlimit="10" d="
		M29.579,68.714c0,0,2.479-9.245-10.15-9.245c-7.296,0-16.494,1.66-10.15,20.287c6.267,18.403,17.065,13.786,25.376,18.269"/>
	<g>
		<path fill="none" stroke="#505250" stroke-width="5" stroke-linecap="round" stroke-linejoin="round" stroke-miterlimit="10" d="
			M95.146,38.975c0-5.556-5.591-4.608-5.591-10.164c0-5.545,5.075-4.625,5.075-10.164c0-5.55-4.549-4.62-4.549-10.164"/>
		<path fill="none" stroke="#505250" stroke-width="5" stroke-linecap="round" stroke-linejoin="round" stroke-miterlimit="10" d="
			M113.146,38.975c0-5.556-5.591-4.608-5.591-10.164c0-5.545,5.075-4.625,5.075-10.164c0-5.55-4.549-4.62-4.549-10.164"/>
		<path fill="none" stroke="#505250" stroke-width="5" stroke-linecap="round" stroke-linejoin="round" stroke-miterlimit="10" d="
			M77.509,38.975c0-5.556-5.601-4.608-5.601-10.164c0-5.545,5.086-4.625,5.086-10.164c0-5.55-4.56-4.62-4.56-10.164"/>
	</g>
</g>
</svg>
