<?xml version="1.0" encoding="utf-8"?>
<!-- Generator: Adobe Illustrator 23.1.1, SVG Export Plug-In . SVG Version: 6.00 Build 0)  -->
<svg version="1.2" baseProfile="tiny" id="Layer_1" xmlns="http://www.w3.org/2000/svg" xmlns:xlink="http://www.w3.org/1999/xlink"
	 x="0px" y="0px" viewBox="0 0 144 144" xml:space="preserve">
<path fill-rule="evenodd" fill="#505250" d="M9.137,92.746L0,91.149v15.733l9.137-1.597V92.746L9.137,92.746z M117.714,88.606
	l24.991-8.02v36.86l-24.991-8.02V88.606L117.714,88.606z M112.378,83.013v35.255c0,2.411-1.973,4.384-4.384,4.384H18.149
	c-2.411,0-4.384-1.973-4.384-4.384V83.013C5.517,77.167,0.133,67.548,0.133,56.669c0-17.82,14.446-32.266,32.266-32.266
	c14.316,0,26.453,9.325,30.672,22.231c4.22-12.906,16.356-22.231,30.672-22.231c17.82,0,32.266,14.447,32.266,32.266
	C126.01,67.548,120.626,77.167,112.378,83.013L112.378,83.013z M94.011,46.532c5.448,0,9.866,4.416,9.866,9.866
	c0,5.448-4.419,9.866-9.866,9.866c-5.45,0-9.868-4.418-9.868-9.866C84.143,50.948,88.561,46.532,94.011,46.532L94.011,46.532z
	 M32.333,46.532c5.45,0,9.869,4.416,9.869,9.866c0,5.448-4.419,9.866-9.869,9.866c-5.447,0-9.866-4.418-9.866-9.866
	C22.467,50.948,26.885,46.532,32.333,46.532L32.333,46.532z"/>
</svg>
