<?xml version="1.0" encoding="utf-8"?>
<!-- Generator: Adobe Illustrator 23.1.1, SVG Export Plug-In . SVG Version: 6.00 Build 0)  -->
<svg version="1.2" baseProfile="tiny" id="Layer_1" xmlns="http://www.w3.org/2000/svg" xmlns:xlink="http://www.w3.org/1999/xlink"
	 x="0px" y="0px" viewBox="0 0 144 144" xml:space="preserve">
<path fill-rule="evenodd" fill="#505250" d="M2.749,107.518L34.172,6.692c0.631-2.023,2.782-3.153,4.806-2.522l101.265,31.56
	c2.023,0.631,3.153,2.782,2.522,4.806l-30.282,97.162c-0.631,2.023-2.782,3.153-4.806,2.522L2.749,107.518L2.749,107.518z
	 M45.23,60.124l54.414,16.959c2.023,0.631,4.175-0.498,4.806-2.522l11.174-35.854c0.631-2.023-0.498-4.175-2.522-4.806
	l-50.75-15.817c-2.023-0.631-4.175,0.498-4.806,2.522L45.23,60.124L45.23,60.124z M43.347,66.167l-12.315,39.515
	c-0.631,2.023,0.498,4.175,2.522,4.806l50.75,15.817c2.023,0.631,4.175-0.498,4.806-2.522l11.173-35.851
	c0.631-2.023-0.498-4.175-2.522-4.806L43.347,66.167L43.347,66.167z M28.83,46.97l8.81,2.746c2.023,0.631,4.175-0.498,4.806-2.522
	l0.001-0.002c0.631-2.023-0.498-4.175-2.522-4.806l-5.146-1.604c-2.023-0.631-4.175,0.498-4.806,2.522L28.83,46.97L28.83,46.97z
	 M111.802,72.829l8.812,2.746c2.023,0.631,4.175-0.498,4.806-2.522l0.001-0.002c0.631-2.023-0.498-4.175-2.522-4.806l-5.148-1.604
	c-2.023-0.631-4.175,0.498-4.806,2.522L111.802,72.829L111.802,72.829z M40.004,11.119l-1.143,3.667
	c-0.631,2.023,0.498,4.175,2.522,4.806l5.146,1.604c2.023,0.631,4.175-0.498,4.806-2.522l0.001-0.003
	c0.631-2.023-0.498-4.175-2.522-4.806L40.004,11.119L40.004,11.119z M35.559,25.38l-1.142,3.664
	c-0.631,2.023,0.498,4.175,2.522,4.806l5.146,1.604c2.023,0.631,4.175-0.498,4.806-2.522v0c0.631-2.023-0.498-4.175-2.522-4.806
	L35.559,25.38L35.559,25.38z M122.976,36.978l-1.143,3.667c-0.631,2.023,0.498,4.175,2.522,4.806l5.148,1.604
	c2.023,0.631,4.175-0.498,4.806-2.522l0.001-0.003c0.631-2.023-0.498-4.175-2.522-4.806L122.976,36.978L122.976,36.978z
	 M118.531,51.24l-1.142,3.664c-0.631,2.023,0.498,4.175,2.522,4.806l5.148,1.604c2.023,0.631,4.175-0.498,4.806-2.522v0
	c0.631-2.023-0.498-4.175-2.522-4.806L118.531,51.24L118.531,51.24z M26.822,53.413l-1.142,3.665
	c-0.631,2.023,0.498,4.175,2.522,4.806l5.146,1.604c2.023,0.631,4.175-0.498,4.806-2.522l0.001-0.002
	c0.631-2.023-0.498-4.175-2.522-4.806L26.822,53.413L26.822,53.413z M22.378,67.672l-1.143,3.667
	c-0.631,2.023,0.498,4.175,2.522,4.806l5.146,1.604c2.023,0.631,4.175-0.498,4.806-2.522l0.001-0.003
	c0.631-2.023-0.498-4.175-2.522-4.806L22.378,67.672L22.378,67.672z M17.934,81.932l-1.142,3.665
	c-0.631,2.023,0.498,4.175,2.522,4.806l5.146,1.604c2.023,0.631,4.175-0.498,4.806-2.522l0.001-0.002
	c0.631-2.023-0.498-4.175-2.522-4.806L17.934,81.932L17.934,81.932z M13.489,96.194l-1.142,3.665
	c-0.631,2.023,0.498,4.175,2.522,4.806l5.146,1.604c2.023,0.631,4.175-0.498,4.806-2.522l0.001-0.002
	c0.631-2.023-0.498-4.175-2.522-4.806L13.489,96.194L13.489,96.194z M109.794,79.272l-1.142,3.665
	c-0.631,2.023,0.498,4.175,2.522,4.806l5.148,1.604c2.023,0.631,4.175-0.498,4.806-2.522l0.001-0.002
	c0.631-2.023-0.498-4.175-2.522-4.806L109.794,79.272L109.794,79.272z M105.35,93.531l-1.143,3.667
	c-0.631,2.023,0.498,4.175,2.522,4.806l5.148,1.604c2.023,0.631,4.175-0.498,4.806-2.522l0.001-0.003
	c0.631-2.023-0.498-4.175-2.522-4.806L105.35,93.531L105.35,93.531z M100.906,107.791l-1.142,3.665
	c-0.631,2.023,0.498,4.175,2.522,4.806l5.148,1.604c2.023,0.631,4.175-0.498,4.806-2.522l0.001-0.002
	c0.631-2.023-0.498-4.175-2.522-4.806L100.906,107.791L100.906,107.791z M96.461,122.053l-1.142,3.665
	c-0.631,2.023,0.498,4.175,2.522,4.806l5.148,1.604c2.023,0.631,4.175-0.498,4.806-2.522l0.001-0.002
	c0.631-2.023-0.498-4.175-2.522-4.806L96.461,122.053L96.461,122.053z"/>
</svg>
