<?xml version="1.0" encoding="utf-8"?>
<!-- Generator: Adobe Illustrator 23.1.1, SVG Export Plug-In . SVG Version: 6.00 Build 0)  -->
<svg version="1.2" baseProfile="tiny" id="Layer_1" xmlns="http://www.w3.org/2000/svg" xmlns:xlink="http://www.w3.org/1999/xlink"
	 x="0px" y="0px" viewBox="0 0 144 144" xml:space="preserve">
<g id="gifts">
	<path id="Element_5_" fill="#505250" d="M140.618,57.435h-7.674c0.67-1.454,1.024-3.031,1.024-4.66c0-3.178-1.34-6.166-3.773-8.413
		l-0.355-0.328c-5.024-4.639-13.199-4.639-18.223,0L98.673,55.986L85.731,44.034c-2.43-2.243-5.596-3.399-8.787-3.472h0
		l-1.36-10.049c-0.149-1.101-1.162-1.926-2.363-1.926H57.502V18.558c0-7.276-6.41-13.195-14.289-13.195s-14.289,5.919-14.289,13.195
		v10.029H13.205c-1.201,0-2.214,0.826-2.363,1.926L0.125,109.682c-0.085,0.626,0.126,1.255,0.578,1.728
		c0.452,0.473,1.102,0.744,1.785,0.744H60.8v22.958c0,1.214,1.066,2.199,2.382,2.199h70.984c1.315,0,2.382-0.985,2.382-2.199V81.696
		h4.071c1.315,0,2.382-0.985,2.382-2.199V59.634C143,58.42,141.934,57.435,140.618,57.435z M114.985,47.144
		c3.167-2.925,8.32-2.924,11.486-0.001l0.355,0.328c2.944,2.719,3.149,7.021,0.62,9.963H103.84L114.985,47.144z M82.363,47.144
		l11.144,10.291H69.9c-1.139-1.321-1.759-2.946-1.759-4.66c0-2.003,0.845-3.887,2.379-5.303l0.355-0.328
		C74.042,44.22,79.196,44.22,82.363,47.144z M33.686,18.558c0-4.85,4.273-8.797,9.526-8.797c5.253,0,9.526,3.946,9.526,8.797v10.029
		H33.686V18.558z M96.292,132.913H65.563V81.696h30.729V132.913z M131.784,132.913h-30.729V81.696h30.729V132.913z M138.237,77.298
		H59.11V61.833h38.978h0.004h1.162h0.004h38.978V77.298z"/>
	<rect x="36.611" y="32.5" fill="#FFFFFF" width="23.442" height="11.396"/>
</g>
</svg>
