<svg xmlns="http://www.w3.org/2000/svg" viewBox="0 0 2456 812"><defs><style>.a{fill:#fff;}.b{fill:#003179;}.c{fill:#003f8b;}.d{fill:#004b99;}.e{fill:#0155a4;}.f{fill:#0165b8;}.g{fill:#0170c6;}.h{fill:#0179d1;}.i{fill:#1c88d7;}.j{fill:#419bdd;}.k{fill:#6cb2e5;}.l{fill:#89c1ea;}.m{fill:#add4f1;}.n{fill:#d6eaf8;}</style></defs><title>cloudscale logo 2019v21</title><path class="a" d="M916.77,440.78c0-41,30.61-69,69-69,28,0,44.59,14,54.6,30l-20,10.18a40,40,0,0,0-34.58-19.4c-25.45,0-45,20.18-45,48.21s19.58,48.21,45,48.21a39.5,39.5,0,0,0,34.58-19.4l20,10.17c-10.18,16-26.57,30-54.6,30-38.38,0-69-28-69-69"/><polygon class="a" points="1069.16 373.94 1092.54 373.94 1092.54 486.75 1151.36 486.75 1151.36 507.35 1069.16 507.35 1069.16 373.94"/><path class="a" d="M1238.81,371.78c40,0,68.22,29.24,68.22,69s-28.21,69-68.22,69-68.22-29.24-68.22-69,28.2-69,68.22-69m0,20.79c-27,0-44.15,20.6-44.15,48.21,0,27.42,17.17,48.21,44.15,48.21,26.82,0,44.15-20.79,44.15-48.21,0-27.6-17.33-48.21-44.15-48.21"/><path class="a" d="M1339.63,373.94h23.63v80c0,21.22,11.81,35,34.24,35,22.16,0,34-13.8,34-35v-80h23.63v80.55c0,33.2-19,55.2-57.61,55.2-38.81,0-57.79-22.17-57.79-55V373.94Z"/><path class="a" d="M1493.4,373.94H1543c41.57,0,69.78,27.59,69.78,66.75s-28.21,66.58-69.78,66.58H1493.4ZM1543,486.75c29,0,45.8-20.78,45.8-46,0-25.79-16-46.22-45.8-46.22h-26.21v92.19Z"/><path class="a" d="M1648.65,476a56.23,56.23,0,0,0,42,19c23.8,0,31.39-12.75,31.39-23,0-16-16.21-20.44-33.81-25.18C1666.84,441.12,1643,435.17,1643,409c0-22,19.58-37,45.79-37,20.36,0,36.23,6.81,47.44,18.64l-10,12.16c-10-11-24-16-38.64-16-15.95,0-27.42,8.63-27.42,21.22,0,13.37,15.43,17.41,32.43,22,21.82,5.78,46.57,12.59,46.57,40.62,0,19.41-13.2,39.24-49.16,39.24-23.2,0-40.19-8.79-51.23-21.21Z"/><path class="a" d="M1768.61,440.78c0-41,30.19-69,68-69a60,60,0,0,1,51.23,26.39l-14,7.76a45.2,45.2,0,0,0-37.17-19.4c-28.64,0-50.8,22.42-50.8,54.16,0,31.57,22.16,54.16,50.8,54.16a44.75,44.75,0,0,0,37.17-19.4l14.22,7.76c-11.21,15.18-27.17,26.39-51.4,26.39-37.77.17-68-27.86-68-68.82"/><path class="a" d="M2002.68,477.78h-67.62l-11.81,29.58h-18.37l53.56-133.42H1979l53.82,133.42h-18.35Zm-62.78-14.84h57.78l-28.81-74.17Z"/><polygon class="a" points="2060.3 373.94 2076.94 373.94 2076.94 492.52 2138.95 492.52 2138.95 507.35 2060.38 507.35 2060.38 373.94 2060.3 373.94"/><polygon class="a" points="2172.33 373.94 2259.69 373.94 2259.69 388.77 2188.89 388.77 2188.89 431.72 2258.31 431.72 2258.31 446.56 2188.89 446.56 2188.89 492.52 2259.69 492.52 2259.69 507.35 2172.33 507.35 2172.33 373.94"/><rect class="b" x="251.87" y="390.05" width="43.73" height="168.73" transform="translate(-189.97 182.9) rotate(-27.86)"/><rect class="c" x="300.98" y="389.34" width="43.73" height="168.82" transform="translate(-183.97 205.77) rotate(-27.86)"/><rect class="d" x="334.39" y="322.22" width="43.73" height="242.34" transform="translate(-165.91 217.87) rotate(-27.86)"/><rect class="e" x="386" y="324.24" width="43.73" height="246.45" transform="translate(-161.83 242.46) rotate(-27.86)"/><rect class="f" x="413.92" y="246.69" width="43.73" height="320.04" transform="translate(-139.55 250.78) rotate(-27.86)"/><rect class="g" x="490.43" y="307.7" width="43.73" height="300.41" transform="translate(-154.6 292.47) rotate(-27.86)"/><rect class="h" x="525.45" y="250.53" width="43.73" height="360.09" transform="translate(-137.77 305.66) rotate(-27.86)"/><rect class="i" x="562.34" y="260.7" width="43.73" height="292.21" transform="translate(-122.39 320.15) rotate(-27.86)"/><rect class="j" x="584.89" y="190.03" width="43.73" height="331.71" transform="translate(-95.98 324.78) rotate(-27.86)"/><rect class="k" x="650.93" y="265.26" width="43.73" height="243.99" transform="translate(-102.99 359.28) rotate(-27.86)"/><rect class="l" x="679.29" y="229.43" width="43.73" height="235.81" transform="translate(-81.05 367.9) rotate(-27.86)"/><rect class="m" x="719.13" y="154.86" width="43.73" height="348.58" transform="translate(-67.93 384.42) rotate(-27.86)"/><rect class="n" x="775.53" y="223.08" width="43.73" height="238.39" transform="translate(-67.53 412.29) rotate(-27.86)"/></svg>