<?xml version="1.0" encoding="utf-8"?>
<!-- Generator: Adobe Illustrator 23.1.1, SVG Export Plug-In . SVG Version: 6.00 Build 0)  -->
<svg version="1.2" baseProfile="tiny" id="Layer_1" xmlns="http://www.w3.org/2000/svg" xmlns:xlink="http://www.w3.org/1999/xlink"
	 x="0px" y="0px" viewBox="0 0 144 144" xml:space="preserve">
<g id="team_discussion">
	<path fill="none" stroke="#505250" stroke-width="5" stroke-miterlimit="10" d="M57.611,101.195
		c0-6.665,5.442-12.068,12.155-12.068S81.92,94.53,81.92,101.195c0,6.665-5.442,12.068-12.155,12.068S57.611,107.86,57.611,101.195z
		"/>
	<path fill="none" stroke="#505250" stroke-width="5" stroke-miterlimit="10" d="M90.935,143.931v-8.535
		c0-7.984-13.812-12.105-21.368-12.105c-7.556,0-21.368,4.122-21.368,12.105v8.535"/>
	<path fill="none" stroke="#505250" stroke-width="5" stroke-miterlimit="10" d="M94.241,101.195
		c0-6.665,5.442-12.068,12.155-12.068s12.155,5.403,12.155,12.068c0,6.665-5.442,12.068-12.155,12.068S94.241,107.86,94.241,101.195
		z"/>
	<path fill="none" stroke="#505250" stroke-width="5" stroke-miterlimit="10" d="M127.566,143.931v-8.535
		c0-7.984-13.812-12.105-21.368-12.105c-2.588,0-5.91,0.483-9.159,1.44"/>
	<path fill="none" stroke="#505250" stroke-width="5" stroke-miterlimit="10" d="M45.147,101.195
		c0-6.665-5.442-12.068-12.155-12.068s-12.155,5.403-12.154,12.068c0,6.665,5.442,12.068,12.154,12.068
		C39.706,113.262,45.147,107.86,45.147,101.195z"/>
	<path fill="none" stroke="#505250" stroke-width="5" stroke-miterlimit="10" d="M11.57,143.931v-8.535
		c0-7.984,13.938-12.105,21.494-12.105c2.588,0,5.846,0.483,9.096,1.44"/>
	<path fill="#505250" stroke="#505250" stroke-width="5" stroke-miterlimit="10" d="M69.568,3.514h54.946
		c6.743,0,12.21,5.467,12.21,12.21V46.25c0,6.743-5.467,12.21-12.21,12.21h-12.21H93.988H78.725l-6.262,18.785
		c-0.928,2.783-4.864,2.783-5.792,0L60.41,58.46H45.147H26.832h-9.158c-6.743,0-12.21-5.467-12.21-12.21V15.724
		c0-6.743,5.467-12.21,12.21-12.21H69.568z"/>
</g>
</svg>
