<?xml version="1.0" encoding="utf-8"?>
<!-- Generator: Adobe Illustrator 23.1.1, SVG Export Plug-In . SVG Version: 6.00 Build 0)  -->
<svg version="1.2" baseProfile="tiny" id="Layer_1" xmlns="http://www.w3.org/2000/svg" xmlns:xlink="http://www.w3.org/1999/xlink"
	 x="0px" y="0px" viewBox="0 0 144 144" xml:space="preserve">
<g id="edit_comment">
	<path fill="none" stroke="#505250" stroke-width="5" stroke-linejoin="round" stroke-miterlimit="10" d="M128.04,33.906
		L72.953,89.13l-4.68,16.953l16.929-4.704l55.086-55.224c1.194-1.196,0.79-3.537-0.901-5.228l-6.125-6.124
		C131.572,33.111,129.233,32.71,128.04,33.906z"/>
	
		<line fill="none" stroke="#505250" stroke-width="5" stroke-linejoin="round" stroke-miterlimit="10" x1="133.807" y1="52.651" x2="121.557" y2="40.403"/>
	<path fill="none" stroke="#505250" stroke-width="5" stroke-miterlimit="10" d="M106.263,46.534v-6.12
		c0-8.446-6.847-15.292-15.294-15.292H17.56c-8.446,0-15.294,6.845-15.294,15.292v64.234c0,8.446,6.847,15.296,15.294,15.296h9.176
		h27.529H90.97c8.446,0,15.294-6.849,15.294-15.296V92.415"/>
	<line fill="none" stroke="#505250" stroke-width="5" stroke-miterlimit="10" x1="26.736" y1="52.651" x2="81.793" y2="52.651"/>
	<line fill="none" stroke="#505250" stroke-width="5" stroke-miterlimit="10" x1="26.736" y1="64.886" x2="81.793" y2="64.886"/>
	<line fill="none" stroke="#505250" stroke-width="5" stroke-miterlimit="10" x1="26.736" y1="77.121" x2="57.323" y2="77.121"/>
</g>
</svg>
