<?xml version="1.0" encoding="utf-8"?>
<!-- Generator: Adobe Illustrator 23.1.1, SVG Export Plug-In . SVG Version: 6.00 Build 0)  -->
<svg version="1.2" baseProfile="tiny" id="Layer_1" xmlns="http://www.w3.org/2000/svg" xmlns:xlink="http://www.w3.org/1999/xlink"
	 x="0px" y="0px" viewBox="0 0 144 144" xml:space="preserve">
<g id="camera">
	<path fill="#505250" d="M128.854,45.999c-2.264-5.11-7.723-8.563-13.806-8.563c-6.019,0-11.429,3.383-13.735,8.406H17.186
		C7.71,45.843,0,52.962,0,61.713v58.842c0,8.751,7.71,15.87,17.186,15.87h109.24c9.477,0,17.187-7.119,17.187-15.87V61.713
		C143.613,53.719,137.253,47.089,128.854,45.999z M138.826,120.555c0,6.313-5.562,11.45-12.399,11.45H17.186
		c-6.837,0-12.399-5.136-12.399-11.45v-43.59h35.128c-2.243,4.288-3.502,9.095-3.502,14.168c0,18.021,15.877,32.682,35.393,32.682
		S107.2,109.155,107.2,91.134c0-5.073-1.258-9.88-3.502-14.168h35.128V120.555z M41.201,91.134c0-15.584,13.73-28.262,30.606-28.262
		s30.606,12.678,30.606,28.262s-13.73,28.262-30.606,28.262S41.201,106.718,41.201,91.134z M138.826,72.545H100.9
		c-6.396-8.51-17.051-14.093-29.094-14.093s-22.697,5.584-29.093,14.093H4.787V61.713c0-6.313,5.562-11.45,12.399-11.45h87.626
		l0.493-1.608c1.226-4.002,5.233-6.798,9.742-6.798c4.516,0,8.523,2.8,9.745,6.809l0.469,1.537l1.728,0.071
		c6.637,0.275,11.836,5.299,11.836,11.438V72.545z"/>
	<ellipse fill="#505250" cx="71.667" cy="91.263" rx="26.192" ry="24.186"/>
	<path fill="#505250" d="M106.308,34.767L106.308,34.767c-0.799,0.799-2.095,0.799-2.894,0L88.589,19.943
		c-0.799-0.799-0.799-2.095,0-2.894l0,0c0.799-0.799,2.095-0.799,2.894,0l14.824,14.824
		C107.107,32.672,107.107,33.968,106.308,34.767z"/>
	<path fill="#505250" d="M142.308,17.049L142.308,17.049c0.799,0.799,0.799,2.095,0,2.894l-14.824,14.824
		c-0.799,0.799-2.095,0.799-2.894,0l0,0c-0.799-0.799-0.799-2.095,0-2.894l14.824-14.824
		C140.213,16.249,141.509,16.249,142.308,17.049z"/>
	<path fill="#505250" d="M115.449,32.436L115.449,32.436c-1.13,0-2.047-0.916-2.047-2.047V9.425c0-1.13,0.916-2.047,2.047-2.047l0,0
		c1.13,0,2.047,0.916,2.047,2.047V30.39C117.495,31.52,116.579,32.436,115.449,32.436z"/>
</g>
</svg>
