<?xml version="1.0" encoding="utf-8"?>
<!-- Generator: Adobe Illustrator 23.1.1, SVG Export Plug-In . SVG Version: 6.00 Build 0)  -->
<svg version="1.2" baseProfile="tiny" id="Layer_1" xmlns="http://www.w3.org/2000/svg" xmlns:xlink="http://www.w3.org/1999/xlink"
	 x="0px" y="0px" viewBox="0 0 144 144" xml:space="preserve">
<path fill="none" stroke="#505250" stroke-width="5" stroke-linecap="round" stroke-linejoin="round" stroke-miterlimit="10" d="
	M105.853,141.72v-1.401c0-6.066,2.37-9.1,5.206-11.805c7.528-7.559,9.006-14.57,9.006-24.356V89.226V60.238
	c0-4.269-4.058-7.729-9.473-7.729l0,0c-5.416,0-8.528,3.461-8.528,7.729v6.129h-0.18V52.316c0-4.265-4.389-7.726-9.806-7.726l0,0
	c-5.415,0-9.81,3.461-9.81,7.726v14.051l0,0V44.179c0-4.265-4.389-7.726-9.806-7.726l0,0c-5.419,0-9.812,3.461-9.812,7.726v22.188
	l0,0V10.849c0-4.265-4.396-7.726-9.812-7.726l0,0c-5.416,0-9.808,3.461-9.808,7.726v80.559v-0.315V60.479
	c0-4.268-3.603-7.729-9.017-7.729l0,0c-5.421,0-9.276,3.461-9.276,7.729v22.837v20.843c0,9.853,0.311,16.074,13.332,24.478
	c5.613,3.75,10.301,5.847,10.301,11.683v1.401"/>
</svg>
