<?xml version="1.0" encoding="utf-8"?>
<!-- Generator: Adobe Illustrator 23.1.1, SVG Export Plug-In . SVG Version: 6.00 Build 0)  -->
<svg version="1.2" baseProfile="tiny" id="Layer_1" xmlns="http://www.w3.org/2000/svg" xmlns:xlink="http://www.w3.org/1999/xlink"
	 x="0px" y="0px" viewBox="0 0 144 144" xml:space="preserve">
<g id="stars">
	<path fill="#505250" stroke="#505250" stroke-width="5" stroke-linejoin="round" stroke-miterlimit="10" d="M92.078,34.541
		l-5.202,26.615l-24.565,8.25c-1.612,0.541-1.855,2.718-0.402,3.6l22.813,13.85l1.086,24.921c0.072,1.656,2.016,2.508,3.285,1.439
		L108.813,96.6l25.093,5.79c1.615,0.372,2.956-1.267,2.27-2.774L125.881,77.02l14.06-22.706c0.894-1.444-0.309-3.274-1.99-3.026
		l-25.64,3.775l-16.696-21.37C94.561,32.344,92.407,32.86,92.078,34.541z"/>
	<path fill="none" stroke="#505250" stroke-width="5" stroke-linejoin="round" stroke-miterlimit="10" d="M75.776,54.695
		L61.944,36.989c-0.874-1.118-2.658-0.691-2.931,0.702l-4.31,22.051l-20.353,6.835c-1.335,0.448-1.537,2.252-0.333,2.982
		l18.901,11.475l0.899,20.647c0.06,1.373,1.67,2.078,2.722,1.192l16.339-13.766"/>
	<path fill="none" stroke="#505250" stroke-width="5" stroke-linejoin="round" stroke-miterlimit="10" d="M46.937,53.075
		L33.105,35.369c-0.874-1.118-2.658-0.691-2.931,0.702l-4.31,22.051L5.512,64.957c-1.335,0.448-1.537,2.252-0.333,2.982
		l18.901,11.475l0.899,20.647c0.06,1.373,1.67,2.078,2.722,1.192l16.339-13.766"/>
</g>
</svg>
