<?xml version="1.0" encoding="utf-8"?>
<!-- Generator: Adobe Illustrator 23.1.1, SVG Export Plug-In . SVG Version: 6.00 Build 0)  -->
<svg version="1.2" baseProfile="tiny" id="Layer_1" xmlns="http://www.w3.org/2000/svg" xmlns:xlink="http://www.w3.org/1999/xlink"
	 x="0px" y="0px" viewBox="0 0 144 144" xml:space="preserve">
<g id="thumbs_up">
	<path fill="none" stroke="#505150" stroke-width="5" stroke-miterlimit="10" d="M37.507,125.877h3.682
		c8.066,0,10.157,10.755,21.51,10.755c2.267,0,28.584,0,28.584,0"/>
	<path fill="none" stroke="#505150" stroke-width="5" stroke-miterlimit="10" d="M141.472,86.442c0-3.96-3.21-7.17-7.17-7.17
		h-17.925c-3.96,0-7.17,3.21-7.17,7.17v7.17c0,3.96,3.21,7.17,7.17,7.17h17.925c3.96,0,7.17-3.21,7.17-7.17V86.442z"/>
	<path fill="none" stroke="#505150" stroke-width="5" stroke-miterlimit="10" d="M137.887,64.932c0-3.96-3.21-7.17-7.17-7.17
		h-17.925c-3.96,0-7.17,3.21-7.17,7.17v7.17c0,3.96,3.21,7.17,7.17,7.17h17.925c3.96,0,7.17-3.21,7.17-7.17V64.932z"/>
	<path fill="none" stroke="#505150" stroke-width="5" stroke-miterlimit="10" d="M137.887,107.952c0-3.96-3.21-7.17-7.17-7.17
		h-17.925c-3.96,0-7.17,3.21-7.17,7.17v7.17c0,3.96,3.21,7.17,7.17,7.17h17.925c3.96,0,7.17-3.21,7.17-7.17V107.952z"/>
	<path fill="none" stroke="#505150" stroke-width="5" stroke-miterlimit="10" d="M130.717,129.462c0-3.96-3.21-7.17-7.17-7.17
		h-17.925c-3.96,0-7.17,3.21-7.17,7.17v3.585c0,3.96,3.21,7.17,7.17,7.17h17.925c3.96,0,7.17-3.21,7.17-7.17V129.462z"/>
	<rect x="1.657" y="57.762" fill="none" stroke="#505150" stroke-width="5" stroke-miterlimit="10" width="35.85" height="78.87"/>
	<path fill="none" stroke="#505150" stroke-width="5" stroke-miterlimit="10" d="M66.915,107.952
		c16.998-6.362,27.607-22.33,27.952-39.435c0,0,0-15.681,0-17.925c0-2.604,3.585-8.353,3.585-20.004
		c0-11.801-2.145-16.163-7.17-22.665c-5.079-6.572-14.34-4.694-14.34,1.651v5.169c0,14.175-5.202,23.777-14.62,34.372l-14.06,15.818
		h-7.17"/>
	<line fill="none" stroke="#505150" stroke-width="5" stroke-miterlimit="10" x1="19.582" y1="68.517" x2="19.582" y2="82.857"/>
</g>
</svg>
