<?xml version="1.0" encoding="utf-8"?>
<!-- Generator: Adobe Illustrator 23.1.1, SVG Export Plug-In . SVG Version: 6.00 Build 0)  -->
<svg version="1.2" baseProfile="tiny" id="Layer_1" xmlns="http://www.w3.org/2000/svg" xmlns:xlink="http://www.w3.org/1999/xlink"
	 x="0px" y="0px" viewBox="0 0 144 144" xml:space="preserve">
<g id="remote_meeting">
	<path id="XMLID_7_" fill="#505250" d="M84.345,15.096H11.435c-5.491,0-9.942,4.11-9.942,9.181v48.965
		c0,5.07,4.451,9.181,9.942,9.181h29.827l0,0c0,8.451-7.419,15.301-16.571,15.301H19.72c-2.746,0-4.971,2.055-4.971,4.59l0,0
		c0,2.535,2.226,4.59,4.971,4.59h56.34c2.746,0,4.971-2.055,4.971-4.59l0,0c0-2.535-2.226-4.59-4.971-4.59h-4.971
		c-9.152,0-16.571-6.851-16.571-15.301l0,0h29.827c5.491,0,9.942-4.11,9.942-9.181V24.277
		C94.288,19.206,89.837,15.096,84.345,15.096z M87.66,64.06c0,5.07-4.451,9.181-9.942,9.181H18.063c-5.491,0-9.942-4.11-9.942-9.181
		V30.397c0-5.07,4.451-9.181,9.942-9.181h59.654c5.491,0,9.942,4.11,9.942,9.181V64.06z"/>
	<path id="XMLID_9_" fill="#505250" d="M136.842,57.066l-17.092-8.303c-4.357-2.116-9.473-0.571-11.427,3.452l-28.309,58.277
		c-1.954,4.023-0.007,9,4.35,11.117l17.092,8.303c4.357,2.116,9.473,0.571,11.427-3.452l28.309-58.277
		C143.147,64.159,141.199,59.182,136.842,57.066z M121.9,61.062c0.489-1.006,1.768-1.392,2.857-0.863
		c1.089,0.529,1.576,1.773,1.088,2.779l-1.18,2.428c-0.489,1.006-1.768,1.392-2.857,0.863c-1.089-0.529-1.576-1.773-1.088-2.779
		L121.9,61.062z M103.747,123.521l-15.778-7.664c-1.089-0.529-1.576-1.773-1.088-2.779c0.489-1.006,1.768-1.392,2.857-0.863
		l15.778,7.664c1.089,0.529,1.576,1.773,1.088,2.779C106.116,123.664,104.837,124.051,103.747,123.521z M107.286,116.237
		l-15.778-7.664c-1.089-0.529-1.576-1.773-1.088-2.779c0.489-1.006,1.768-1.392,2.857-0.863l15.778,7.664
		c1.089,0.529,1.576,1.773,1.088,2.779C109.654,116.38,108.375,116.766,107.286,116.237z M110.825,108.952l-15.778-7.664
		c-1.089-0.529-1.576-1.773-1.088-2.779c0.489-1.006,1.768-1.392,2.857-0.863l15.778,7.664c1.089,0.529,1.576,1.773,1.088,2.779
		C113.193,109.095,111.914,109.481,110.825,108.952z"/>
</g>
</svg>
